<mxfile host="app.diagrams.net" modified="2020-10-03T13:57:31.754Z" agent="5.0 (X11; Linux x86_64) AppleWebKit/537.36 (KHTML, like Gecko) Chrome/85.0.4183.121 Safari/537.36" etag="JkhmN0pip3bhzUn1bIxC" version="13.7.7" type="github">
  <diagram name="Page-1" id="e7e014a7-5840-1c2e-5031-d8a46d1fe8dd">
    <mxGraphModel dx="1422" dy="721" grid="1" gridSize="10" guides="1" tooltips="1" connect="1" arrows="1" fold="1" page="1" pageScale="1" pageWidth="1169" pageHeight="826" background="#ffffff" math="0" shadow="0">
      <root>
        <mxCell id="0" />
        <mxCell id="1" parent="0" />
        <mxCell id="KssglWrPI-wohfVkcNaa-48" value="Actor" style="swimlane;startSize=23;" vertex="1" parent="1">
          <mxGeometry x="180" y="190" width="340" height="570" as="geometry" />
        </mxCell>
        <mxCell id="KssglWrPI-wohfVkcNaa-50" value="" style="ellipse;html=1;shape=startState;fillColor=#000000;strokeColor=#ff0000;" vertex="1" parent="KssglWrPI-wohfVkcNaa-48">
          <mxGeometry x="155" y="30" width="30" height="30" as="geometry" />
        </mxCell>
        <mxCell id="KssglWrPI-wohfVkcNaa-51" value="" style="edgeStyle=orthogonalEdgeStyle;html=1;verticalAlign=bottom;endArrow=open;endSize=8;strokeColor=#ff0000;dashed=1;" edge="1" source="KssglWrPI-wohfVkcNaa-50" parent="KssglWrPI-wohfVkcNaa-48">
          <mxGeometry relative="1" as="geometry">
            <mxPoint x="170" y="90" as="targetPoint" />
          </mxGeometry>
        </mxCell>
        <mxCell id="KssglWrPI-wohfVkcNaa-56" style="edgeStyle=orthogonalEdgeStyle;rounded=0;orthogonalLoop=1;jettySize=auto;html=1;exitX=0.5;exitY=1;exitDx=0;exitDy=0;entryX=0.5;entryY=0;entryDx=0;entryDy=0;startArrow=none;startFill=0;endArrow=classic;endFill=1;" edge="1" parent="KssglWrPI-wohfVkcNaa-48" source="KssglWrPI-wohfVkcNaa-52" target="KssglWrPI-wohfVkcNaa-55">
          <mxGeometry relative="1" as="geometry" />
        </mxCell>
        <mxCell id="KssglWrPI-wohfVkcNaa-52" value="Người dùng đăng nhập vào hệ thống" style="rounded=1;whiteSpace=wrap;html=1;fillColor=#dae8fc;strokeColor=#6c8ebf;" vertex="1" parent="KssglWrPI-wohfVkcNaa-48">
          <mxGeometry x="110" y="90" width="120" height="60" as="geometry" />
        </mxCell>
        <mxCell id="KssglWrPI-wohfVkcNaa-68" style="edgeStyle=orthogonalEdgeStyle;rounded=0;orthogonalLoop=1;jettySize=auto;html=1;exitX=0.5;exitY=1;exitDx=0;exitDy=0;entryX=0.5;entryY=0;entryDx=0;entryDy=0;startArrow=none;startFill=0;endArrow=classic;endFill=1;" edge="1" parent="KssglWrPI-wohfVkcNaa-48" source="KssglWrPI-wohfVkcNaa-55" target="KssglWrPI-wohfVkcNaa-67">
          <mxGeometry relative="1" as="geometry" />
        </mxCell>
        <mxCell id="KssglWrPI-wohfVkcNaa-55" value="Người dùng nhập tài khoản và mật khẩu vào form đăng nhập" style="rounded=1;whiteSpace=wrap;html=1;fillColor=#dae8fc;strokeColor=#6c8ebf;" vertex="1" parent="KssglWrPI-wohfVkcNaa-48">
          <mxGeometry x="110" y="180" width="120" height="60" as="geometry" />
        </mxCell>
        <mxCell id="KssglWrPI-wohfVkcNaa-57" value="Người dùng ấn phím Enter hoặc chọn &quot;Đăng nhập&quot;" style="rounded=1;whiteSpace=wrap;html=1;fillColor=#dae8fc;strokeColor=#6c8ebf;" vertex="1" parent="KssglWrPI-wohfVkcNaa-48">
          <mxGeometry x="210" y="255" width="120" height="60" as="geometry" />
        </mxCell>
        <mxCell id="KssglWrPI-wohfVkcNaa-81" style="edgeStyle=orthogonalEdgeStyle;rounded=0;orthogonalLoop=1;jettySize=auto;html=1;exitX=0;exitY=0.5;exitDx=0;exitDy=0;entryX=1;entryY=0.5;entryDx=0;entryDy=0;startArrow=none;startFill=0;endArrow=classic;endFill=1;" edge="1" parent="KssglWrPI-wohfVkcNaa-48" source="KssglWrPI-wohfVkcNaa-67" target="KssglWrPI-wohfVkcNaa-70">
          <mxGeometry relative="1" as="geometry" />
        </mxCell>
        <mxCell id="KssglWrPI-wohfVkcNaa-83" style="edgeStyle=orthogonalEdgeStyle;rounded=0;orthogonalLoop=1;jettySize=auto;html=1;exitX=1;exitY=0.5;exitDx=0;exitDy=0;startArrow=none;startFill=0;endArrow=classic;endFill=1;" edge="1" parent="KssglWrPI-wohfVkcNaa-48" source="KssglWrPI-wohfVkcNaa-67" target="KssglWrPI-wohfVkcNaa-57">
          <mxGeometry relative="1" as="geometry" />
        </mxCell>
        <mxCell id="KssglWrPI-wohfVkcNaa-67" value="" style="rhombus;whiteSpace=wrap;html=1;fillColor=#d5e8d4;strokeColor=#82b366;" vertex="1" parent="KssglWrPI-wohfVkcNaa-48">
          <mxGeometry x="155" y="270" width="30" height="30" as="geometry" />
        </mxCell>
        <mxCell id="KssglWrPI-wohfVkcNaa-70" value="Người dùng chọn thoát" style="rounded=1;whiteSpace=wrap;html=1;fillColor=#dae8fc;strokeColor=#6c8ebf;" vertex="1" parent="KssglWrPI-wohfVkcNaa-48">
          <mxGeometry x="10" y="255" width="120" height="60" as="geometry" />
        </mxCell>
        <mxCell id="KssglWrPI-wohfVkcNaa-85" value="Người dùng xác nhận" style="rounded=1;whiteSpace=wrap;html=1;fillColor=#dae8fc;strokeColor=#6c8ebf;" vertex="1" parent="KssglWrPI-wohfVkcNaa-48">
          <mxGeometry x="110" y="380" width="120" height="60" as="geometry" />
        </mxCell>
        <mxCell id="KssglWrPI-wohfVkcNaa-49" value="Hệ thống" style="swimlane;" vertex="1" parent="1">
          <mxGeometry x="520" y="190" width="360" height="570" as="geometry" />
        </mxCell>
        <mxCell id="KssglWrPI-wohfVkcNaa-53" value="Hệ thống hiển thị màn hình đăng nhập" style="rounded=1;whiteSpace=wrap;html=1;fillColor=#dae8fc;strokeColor=#6c8ebf;" vertex="1" parent="KssglWrPI-wohfVkcNaa-49">
          <mxGeometry x="120" y="90" width="120" height="60" as="geometry" />
        </mxCell>
        <mxCell id="KssglWrPI-wohfVkcNaa-75" style="edgeStyle=orthogonalEdgeStyle;rounded=0;orthogonalLoop=1;jettySize=auto;html=1;exitX=1;exitY=0.5;exitDx=0;exitDy=0;entryX=0;entryY=0.5;entryDx=0;entryDy=0;startArrow=none;startFill=0;endArrow=classic;endFill=1;" edge="1" parent="KssglWrPI-wohfVkcNaa-49" source="KssglWrPI-wohfVkcNaa-60" target="KssglWrPI-wohfVkcNaa-74">
          <mxGeometry relative="1" as="geometry" />
        </mxCell>
        <mxCell id="KssglWrPI-wohfVkcNaa-60" value="Hệ thống kiểm tra tài khoản, mật khẩu" style="rounded=1;whiteSpace=wrap;html=1;fillColor=#dae8fc;strokeColor=#6c8ebf;" vertex="1" parent="KssglWrPI-wohfVkcNaa-49">
          <mxGeometry x="20" y="255" width="120" height="60" as="geometry" />
        </mxCell>
        <mxCell id="KssglWrPI-wohfVkcNaa-61" value="Hệ thống hiển thị màn hình quản lý bán hàng" style="rounded=1;whiteSpace=wrap;html=1;fillColor=#dae8fc;strokeColor=#6c8ebf;" vertex="1" parent="KssglWrPI-wohfVkcNaa-49">
          <mxGeometry x="220" y="350" width="120" height="60" as="geometry" />
        </mxCell>
        <mxCell id="KssglWrPI-wohfVkcNaa-76" style="edgeStyle=orthogonalEdgeStyle;rounded=1;orthogonalLoop=1;jettySize=auto;html=1;exitX=1;exitY=0.5;exitDx=0;exitDy=0;startArrow=none;startFill=0;endArrow=classic;endFill=1;" edge="1" parent="KssglWrPI-wohfVkcNaa-49" source="KssglWrPI-wohfVkcNaa-74" target="KssglWrPI-wohfVkcNaa-61">
          <mxGeometry relative="1" as="geometry">
            <Array as="points">
              <mxPoint x="300" y="285" />
            </Array>
          </mxGeometry>
        </mxCell>
        <mxCell id="KssglWrPI-wohfVkcNaa-77" value="Đúng" style="edgeLabel;html=1;align=center;verticalAlign=middle;resizable=0;points=[];" vertex="1" connectable="0" parent="KssglWrPI-wohfVkcNaa-76">
          <mxGeometry x="-0.7333" y="-1" relative="1" as="geometry">
            <mxPoint x="21" y="-9.44" as="offset" />
          </mxGeometry>
        </mxCell>
        <mxCell id="KssglWrPI-wohfVkcNaa-91" style="edgeStyle=orthogonalEdgeStyle;rounded=1;orthogonalLoop=1;jettySize=auto;html=1;exitX=0.5;exitY=1;exitDx=0;exitDy=0;entryX=1;entryY=0.5;entryDx=0;entryDy=0;startArrow=none;startFill=0;endArrow=classic;endFill=1;" edge="1" parent="KssglWrPI-wohfVkcNaa-49" source="KssglWrPI-wohfVkcNaa-74" target="KssglWrPI-wohfVkcNaa-78">
          <mxGeometry relative="1" as="geometry" />
        </mxCell>
        <mxCell id="KssglWrPI-wohfVkcNaa-74" value="" style="rhombus;whiteSpace=wrap;html=1;fillColor=#d5e8d4;strokeColor=#82b366;" vertex="1" parent="KssglWrPI-wohfVkcNaa-49">
          <mxGeometry x="175" y="270" width="30" height="30" as="geometry" />
        </mxCell>
        <mxCell id="KssglWrPI-wohfVkcNaa-78" value="Hệ thống thông báo sai tên tài khoản hoặc mật khẩu" style="rounded=1;whiteSpace=wrap;html=1;fillColor=#dae8fc;strokeColor=#6c8ebf;" vertex="1" parent="KssglWrPI-wohfVkcNaa-49">
          <mxGeometry x="20" y="350" width="120" height="60" as="geometry" />
        </mxCell>
        <mxCell id="KssglWrPI-wohfVkcNaa-65" value="" style="ellipse;html=1;shape=endState;fillColor=#000000;strokeColor=#ff0000;" vertex="1" parent="KssglWrPI-wohfVkcNaa-49">
          <mxGeometry x="175" y="520" width="30" height="30" as="geometry" />
        </mxCell>
        <mxCell id="KssglWrPI-wohfVkcNaa-66" style="edgeStyle=orthogonalEdgeStyle;rounded=1;orthogonalLoop=1;jettySize=auto;html=1;exitX=0.5;exitY=1;exitDx=0;exitDy=0;startArrow=none;startFill=0;endArrow=classic;endFill=1;" edge="1" parent="KssglWrPI-wohfVkcNaa-49" source="KssglWrPI-wohfVkcNaa-61" target="KssglWrPI-wohfVkcNaa-65">
          <mxGeometry relative="1" as="geometry">
            <Array as="points">
              <mxPoint x="280" y="535" />
            </Array>
          </mxGeometry>
        </mxCell>
        <mxCell id="KssglWrPI-wohfVkcNaa-54" style="edgeStyle=orthogonalEdgeStyle;rounded=0;orthogonalLoop=1;jettySize=auto;html=1;exitX=1;exitY=0.5;exitDx=0;exitDy=0;entryX=0;entryY=0.5;entryDx=0;entryDy=0;startArrow=none;startFill=0;endArrow=classic;endFill=1;" edge="1" parent="1" source="KssglWrPI-wohfVkcNaa-52" target="KssglWrPI-wohfVkcNaa-53">
          <mxGeometry relative="1" as="geometry" />
        </mxCell>
        <mxCell id="KssglWrPI-wohfVkcNaa-62" style="edgeStyle=orthogonalEdgeStyle;rounded=0;orthogonalLoop=1;jettySize=auto;html=1;exitX=1;exitY=0.5;exitDx=0;exitDy=0;entryX=0;entryY=0.5;entryDx=0;entryDy=0;startArrow=none;startFill=0;endArrow=classic;endFill=1;" edge="1" parent="1" source="KssglWrPI-wohfVkcNaa-57" target="KssglWrPI-wohfVkcNaa-60">
          <mxGeometry relative="1" as="geometry" />
        </mxCell>
        <mxCell id="KssglWrPI-wohfVkcNaa-72" style="edgeStyle=orthogonalEdgeStyle;orthogonalLoop=1;jettySize=auto;html=1;exitX=0.5;exitY=1;exitDx=0;exitDy=0;entryX=0;entryY=0.5;entryDx=0;entryDy=0;startArrow=none;startFill=0;endArrow=classic;endFill=1;rounded=1;" edge="1" parent="1" source="KssglWrPI-wohfVkcNaa-70" target="KssglWrPI-wohfVkcNaa-65">
          <mxGeometry relative="1" as="geometry">
            <Array as="points">
              <mxPoint x="250" y="725" />
            </Array>
          </mxGeometry>
        </mxCell>
        <mxCell id="KssglWrPI-wohfVkcNaa-86" style="edgeStyle=orthogonalEdgeStyle;rounded=1;orthogonalLoop=1;jettySize=auto;html=1;exitX=0;exitY=0.5;exitDx=0;exitDy=0;entryX=1;entryY=0.5;entryDx=0;entryDy=0;startArrow=none;startFill=0;endArrow=classic;endFill=1;" edge="1" parent="1" source="KssglWrPI-wohfVkcNaa-78" target="KssglWrPI-wohfVkcNaa-85">
          <mxGeometry relative="1" as="geometry" />
        </mxCell>
        <mxCell id="KssglWrPI-wohfVkcNaa-87" style="edgeStyle=orthogonalEdgeStyle;rounded=1;orthogonalLoop=1;jettySize=auto;html=1;exitX=0.5;exitY=1;exitDx=0;exitDy=0;entryX=1;entryY=0.5;entryDx=0;entryDy=0;startArrow=none;startFill=0;endArrow=classic;endFill=1;" edge="1" parent="1" source="KssglWrPI-wohfVkcNaa-85" target="KssglWrPI-wohfVkcNaa-53">
          <mxGeometry relative="1" as="geometry">
            <Array as="points">
              <mxPoint x="350" y="650" />
              <mxPoint x="870" y="650" />
              <mxPoint x="870" y="310" />
            </Array>
          </mxGeometry>
        </mxCell>
      </root>
    </mxGraphModel>
  </diagram>
</mxfile>
